<mxfile host="app.diagrams.net" agent="Mozilla/5.0 (Windows NT 10.0; Win64; x64) AppleWebKit/537.36 (KHTML, like Gecko) Chrome/134.0.0.0 Safari/537.36" version="26.1.0">
  <diagram name="Page-1" id="J_1K-tecqOC54q3Rrnrp">
    <mxGraphModel dx="1050" dy="1657" grid="1" gridSize="10" guides="1" tooltips="1" connect="1" arrows="1" fold="1" page="1" pageScale="1" pageWidth="850" pageHeight="1100" math="0" shadow="0">
      <root>
        <mxCell id="0" />
        <mxCell id="1" parent="0" />
        <mxCell id="-YorjI9VozgVux-aCv3z-12" style="edgeStyle=orthogonalEdgeStyle;rounded=0;orthogonalLoop=1;jettySize=auto;html=1;" edge="1" parent="1" source="-YorjI9VozgVux-aCv3z-1">
          <mxGeometry relative="1" as="geometry">
            <mxPoint x="140" y="100" as="targetPoint" />
          </mxGeometry>
        </mxCell>
        <mxCell id="-YorjI9VozgVux-aCv3z-1" value="" style="verticalLabelPosition=bottom;aspect=fixed;html=1;shape=mxgraph.salesforce.web;" vertex="1" parent="1">
          <mxGeometry x="50" y="40" width="60" height="47.400000000000006" as="geometry" />
        </mxCell>
        <mxCell id="-YorjI9VozgVux-aCv3z-7" style="edgeStyle=orthogonalEdgeStyle;rounded=0;orthogonalLoop=1;jettySize=auto;html=1;" edge="1" parent="1" source="-YorjI9VozgVux-aCv3z-3">
          <mxGeometry relative="1" as="geometry">
            <mxPoint x="310" y="190" as="targetPoint" />
          </mxGeometry>
        </mxCell>
        <mxCell id="-YorjI9VozgVux-aCv3z-3" value="" style="image;aspect=fixed;html=1;points=[];align=center;fontSize=12;image=img/lib/azure2/databases/SQL_Server.svg;" vertex="1" parent="1">
          <mxGeometry x="46" y="250" width="68" height="68" as="geometry" />
        </mxCell>
        <mxCell id="-YorjI9VozgVux-aCv3z-4" value="" style="image;aspect=fixed;html=1;points=[];align=center;fontSize=12;image=img/lib/azure2/databases/Data_Factory.svg;" vertex="1" parent="1">
          <mxGeometry x="310" y="162" width="68" height="68" as="geometry" />
        </mxCell>
        <mxCell id="-YorjI9VozgVux-aCv3z-5" value="" style="edgeStyle=orthogonalEdgeStyle;html=1;endArrow=block;elbow=vertical;startArrow=none;endFill=1;strokeColor=#545B64;rounded=0;entryX=0;entryY=0.326;entryDx=0;entryDy=0;entryPerimeter=0;" edge="1" parent="1" target="-YorjI9VozgVux-aCv3z-4">
          <mxGeometry width="100" relative="1" as="geometry">
            <mxPoint x="130" y="100" as="sourcePoint" />
            <mxPoint x="230" y="100" as="targetPoint" />
          </mxGeometry>
        </mxCell>
        <mxCell id="-YorjI9VozgVux-aCv3z-6" value="" style="edgeStyle=orthogonalEdgeStyle;html=1;endArrow=block;elbow=vertical;startArrow=none;endFill=1;strokeColor=#545B64;rounded=0;entryX=0;entryY=0.412;entryDx=0;entryDy=0;entryPerimeter=0;" edge="1" parent="1" target="-YorjI9VozgVux-aCv3z-4">
          <mxGeometry width="100" relative="1" as="geometry">
            <mxPoint x="100" y="170" as="sourcePoint" />
            <mxPoint x="200" y="160" as="targetPoint" />
          </mxGeometry>
        </mxCell>
        <mxCell id="-YorjI9VozgVux-aCv3z-8" value="" style="sketch=0;pointerEvents=1;shadow=0;dashed=0;html=1;strokeColor=none;fillColor=#505050;labelPosition=center;verticalLabelPosition=bottom;verticalAlign=top;outlineConnect=0;align=center;shape=mxgraph.office.concepts.clock;" vertex="1" parent="1">
          <mxGeometry x="350" y="290" width="35" height="43" as="geometry" />
        </mxCell>
        <mxCell id="-YorjI9VozgVux-aCv3z-9" style="edgeStyle=orthogonalEdgeStyle;rounded=0;orthogonalLoop=1;jettySize=auto;html=1;entryX=0.776;entryY=1.021;entryDx=0;entryDy=0;entryPerimeter=0;" edge="1" parent="1" source="-YorjI9VozgVux-aCv3z-8" target="-YorjI9VozgVux-aCv3z-4">
          <mxGeometry relative="1" as="geometry" />
        </mxCell>
        <mxCell id="-YorjI9VozgVux-aCv3z-10" value="" style="shape=image;html=1;verticalAlign=top;verticalLabelPosition=bottom;labelBackgroundColor=#ffffff;imageAspect=0;aspect=fixed;image=https://cdn4.iconfinder.com/data/icons/essentials-74/24/011_-_Calendar-128.png" vertex="1" parent="1">
          <mxGeometry x="290" y="310" width="48" height="48" as="geometry" />
        </mxCell>
        <mxCell id="-YorjI9VozgVux-aCv3z-11" style="edgeStyle=orthogonalEdgeStyle;rounded=0;orthogonalLoop=1;jettySize=auto;html=1;entryX=0.376;entryY=1.009;entryDx=0;entryDy=0;entryPerimeter=0;" edge="1" parent="1" source="-YorjI9VozgVux-aCv3z-10" target="-YorjI9VozgVux-aCv3z-4">
          <mxGeometry relative="1" as="geometry" />
        </mxCell>
        <mxCell id="-YorjI9VozgVux-aCv3z-14" style="edgeStyle=orthogonalEdgeStyle;rounded=0;orthogonalLoop=1;jettySize=auto;html=1;" edge="1" parent="1" source="-YorjI9VozgVux-aCv3z-4" target="-YorjI9VozgVux-aCv3z-38">
          <mxGeometry relative="1" as="geometry">
            <mxPoint x="421.41599999999994" y="328.5920000000001" as="targetPoint" />
          </mxGeometry>
        </mxCell>
        <mxCell id="-YorjI9VozgVux-aCv3z-17" value="" style="edgeStyle=elbowEdgeStyle;elbow=horizontal;endArrow=classic;html=1;curved=0;rounded=0;endSize=8;startSize=8;entryX=0.471;entryY=0.069;entryDx=0;entryDy=0;entryPerimeter=0;" edge="1" parent="1" target="-YorjI9VozgVux-aCv3z-39">
          <mxGeometry width="50" height="50" relative="1" as="geometry">
            <mxPoint x="380" y="200" as="sourcePoint" />
            <mxPoint x="550.0160000000001" y="305.48" as="targetPoint" />
          </mxGeometry>
        </mxCell>
        <mxCell id="-YorjI9VozgVux-aCv3z-19" style="edgeStyle=orthogonalEdgeStyle;rounded=0;orthogonalLoop=1;jettySize=auto;html=1;" edge="1" parent="1" source="-YorjI9VozgVux-aCv3z-18" target="-YorjI9VozgVux-aCv3z-4">
          <mxGeometry relative="1" as="geometry" />
        </mxCell>
        <mxCell id="-YorjI9VozgVux-aCv3z-18" value="" style="shape=image;html=1;verticalAlign=top;verticalLabelPosition=bottom;labelBackgroundColor=#ffffff;imageAspect=0;aspect=fixed;image=https://cdn2.iconfinder.com/data/icons/competitive-strategy-and-corporate-training/512/156_cloud_storage_computing_data_flow_network_cloud_smart_computing-128.png" vertex="1" parent="1">
          <mxGeometry x="290" y="19.7" width="88" height="88" as="geometry" />
        </mxCell>
        <mxCell id="-YorjI9VozgVux-aCv3z-20" value="" style="verticalLabelPosition=bottom;html=1;verticalAlign=top;align=center;strokeColor=none;fillColor=#00BEF2;shape=mxgraph.azure.sql_database;" vertex="1" parent="1">
          <mxGeometry x="590" y="171" width="67.5" height="79" as="geometry" />
        </mxCell>
        <mxCell id="-YorjI9VozgVux-aCv3z-22" style="edgeStyle=orthogonalEdgeStyle;rounded=0;orthogonalLoop=1;jettySize=auto;html=1;entryX=0;entryY=0.38;entryDx=0;entryDy=0;entryPerimeter=0;" edge="1" parent="1" source="-YorjI9VozgVux-aCv3z-4" target="-YorjI9VozgVux-aCv3z-20">
          <mxGeometry relative="1" as="geometry" />
        </mxCell>
        <mxCell id="-YorjI9VozgVux-aCv3z-23" value="" style="image;aspect=fixed;html=1;points=[];align=center;fontSize=12;image=img/lib/azure2/analytics/Power_BI_Embedded.svg;" vertex="1" parent="1">
          <mxGeometry x="770" y="177" width="51" height="68" as="geometry" />
        </mxCell>
        <mxCell id="-YorjI9VozgVux-aCv3z-24" style="edgeStyle=orthogonalEdgeStyle;rounded=0;orthogonalLoop=1;jettySize=auto;html=1;exitX=1;exitY=0.5;exitDx=0;exitDy=0;exitPerimeter=0;entryX=-0.063;entryY=0.412;entryDx=0;entryDy=0;entryPerimeter=0;" edge="1" parent="1" source="-YorjI9VozgVux-aCv3z-20" target="-YorjI9VozgVux-aCv3z-23">
          <mxGeometry relative="1" as="geometry" />
        </mxCell>
        <mxCell id="-YorjI9VozgVux-aCv3z-25" value="HTTP" style="text;html=1;align=center;verticalAlign=middle;whiteSpace=wrap;rounded=0;" vertex="1" parent="1">
          <mxGeometry x="54" y="90" width="60" height="30" as="geometry" />
        </mxCell>
        <mxCell id="-YorjI9VozgVux-aCv3z-26" value="CSV Files" style="text;html=1;align=center;verticalAlign=middle;whiteSpace=wrap;rounded=0;" vertex="1" parent="1">
          <mxGeometry x="46" y="190" width="60" height="30" as="geometry" />
        </mxCell>
        <mxCell id="-YorjI9VozgVux-aCv3z-28" value="SQL On-prem" style="text;html=1;align=center;verticalAlign=middle;whiteSpace=wrap;rounded=0;" vertex="1" parent="1">
          <mxGeometry x="40" y="319" width="60" height="30" as="geometry" />
        </mxCell>
        <mxCell id="-YorjI9VozgVux-aCv3z-29" value="Data Flow" style="text;html=1;align=center;verticalAlign=middle;whiteSpace=wrap;rounded=0;" vertex="1" parent="1">
          <mxGeometry x="378" width="60" height="30" as="geometry" />
        </mxCell>
        <mxCell id="-YorjI9VozgVux-aCv3z-30" value="Schedule Trigger" style="text;html=1;align=center;verticalAlign=middle;whiteSpace=wrap;rounded=0;" vertex="1" parent="1">
          <mxGeometry x="250" y="360" width="60" height="30" as="geometry" />
        </mxCell>
        <mxCell id="-YorjI9VozgVux-aCv3z-31" value="Tumbling Trigger" style="text;html=1;align=center;verticalAlign=middle;whiteSpace=wrap;rounded=0;" vertex="1" parent="1">
          <mxGeometry x="337.5" y="333" width="60" height="30" as="geometry" />
        </mxCell>
        <mxCell id="-YorjI9VozgVux-aCv3z-32" value="Bronze Container" style="text;html=1;align=center;verticalAlign=middle;whiteSpace=wrap;rounded=0;" vertex="1" parent="1">
          <mxGeometry x="425" y="370" width="60" height="30" as="geometry" />
        </mxCell>
        <mxCell id="-YorjI9VozgVux-aCv3z-33" value="Silver Container" style="text;html=1;align=center;verticalAlign=middle;whiteSpace=wrap;rounded=0;" vertex="1" parent="1">
          <mxGeometry x="529" y="370" width="60" height="30" as="geometry" />
        </mxCell>
        <mxCell id="-YorjI9VozgVux-aCv3z-34" value="Target SQL Database" style="text;html=1;align=center;verticalAlign=middle;whiteSpace=wrap;rounded=0;" vertex="1" parent="1">
          <mxGeometry x="593.75" y="260" width="60" height="30" as="geometry" />
        </mxCell>
        <mxCell id="-YorjI9VozgVux-aCv3z-35" value="PowerBI" style="text;html=1;align=center;verticalAlign=middle;whiteSpace=wrap;rounded=0;" vertex="1" parent="1">
          <mxGeometry x="770" y="250" width="60" height="30" as="geometry" />
        </mxCell>
        <mxCell id="-YorjI9VozgVux-aCv3z-37" value="&lt;b&gt;&lt;font style=&quot;font-size: 23px;&quot;&gt;BOOTCAMP PROJECT 2&lt;/font&gt;&lt;/b&gt;" style="text;html=1;align=center;verticalAlign=middle;whiteSpace=wrap;rounded=0;" vertex="1" parent="1">
          <mxGeometry x="170" y="-70" width="460" height="30" as="geometry" />
        </mxCell>
        <mxCell id="-YorjI9VozgVux-aCv3z-38" value="" style="image;aspect=fixed;html=1;points=[];align=center;fontSize=12;image=img/lib/azure2/storage/Storage_Accounts.svg;" vertex="1" parent="1">
          <mxGeometry x="420" y="318" width="65" height="52" as="geometry" />
        </mxCell>
        <mxCell id="-YorjI9VozgVux-aCv3z-39" value="" style="image;aspect=fixed;html=1;points=[];align=center;fontSize=12;image=img/lib/azure2/storage/Storage_Accounts.svg;" vertex="1" parent="1">
          <mxGeometry x="526.5" y="318" width="65" height="52" as="geometry" />
        </mxCell>
        <mxCell id="-YorjI9VozgVux-aCv3z-40" value="DATA FACTORY" style="text;html=1;align=center;verticalAlign=middle;whiteSpace=wrap;rounded=0;" vertex="1" parent="1">
          <mxGeometry x="378" y="141" width="60" height="30" as="geometry" />
        </mxCell>
        <mxCell id="-YorjI9VozgVux-aCv3z-41" value="" style="shape=image;html=1;verticalAlign=top;verticalLabelPosition=bottom;labelBackgroundColor=#ffffff;imageAspect=0;aspect=fixed;image=https://cdn2.iconfinder.com/data/icons/simple-files/128/CSV.png" vertex="1" parent="1">
          <mxGeometry x="46" y="135" width="55" height="55" as="geometry" />
        </mxCell>
      </root>
    </mxGraphModel>
  </diagram>
</mxfile>
